# xmcd
#
# Track frame offsets:
#	150
#	26552
#	43511
#	67817
#	88939
#	112180
#	134380
#	155024
#	188052
#	212533
#
# Disc length: 3092 seconds
#
# Revision: 4
# Processed by: cddbd v1.5.2PL0 Copyright (c) Steve Scherf et al.
# Submitted via: EZCDAudioConverter 8.0.2.1
#
DISCID=880c120a
DTITLE=Hồng Trúc - 12. Quê Mẹ
DYEAR=2002
DGENRE=country
TTITLE0=Quê Mẹ
TTITLE1=Hình ảnh người em không đợi
TTITLE2=Một thuở yêu anh
TTITLE3=Con gái của mẹ
TTITLE4=Năm cụm núi quê hương
TTITLE5=Mất nhau rồi
TTITLE6=Tự tình trong đêm
TTITLE7=Hoa nở về đêm
TTITLE8=Thu Sầu
TTITLE9=Những lời này cho anh
EXTD=
EXTT0=
EXTT1=
EXTT2=
EXTT3=
EXTT4=
EXTT5=
EXTT6=
EXTT7=
EXTT8=
EXTT9=
PLAYORDER=
